<svg xmlns="http://www.w3.org/2000/svg" xml:space="preserve" width="17087" height="5512" style="shape-rendering:geometricPrecision;text-rendering:geometricPrecision;image-rendering:optimizeQuality;fill-rule:evenodd;clip-rule:evenodd" viewBox="0 0 5859.22 1890.07">
    <path fill="none" d="M0 0h5859.22v1890.07H0z"/>
    <circle fill="#2B2E3A" cx="582.48" cy="945.03" r="582.48"/>
    <path fill="#9FEAF9" d="M457.35 688.79c-118.34-21.55-211.91 1-249.21 65.6-27.82 48.2-19.87 112.1 19.3 180.41 2.13 3.9 6.21 6.33 10.66 6.33 6.7 0 12.13-5.44 12.13-12.14 0-2.21-.6-4.37-1.74-6.26-35.28-61.54-42.14-116.68-19.32-156.21 30.98-53.65 114.43-73.78 223.83-53.85.65.1 1.32.16 1.99.16 6.7 0 12.13-5.44 12.13-12.14 0-5.79-4.09-10.78-9.77-11.9zm-172.72 352.92c47.85 52.58 110.01 101.9 180.91 142.83 171.66 99.11 354.42 125.6 444.48 64.19 3.42-2.24 5.48-6.06 5.48-10.14 0-6.7-5.44-12.14-12.14-12.14-2.51 0-4.96.78-7.01 2.23-80.61 54.96-254.21 29.8-418.67-65.15-68.78-39.71-128.98-87.48-175.1-138.16-2.3-2.55-5.57-4-9.01-4-6.7 0-12.13 5.43-12.13 12.13 0 3.04 1.14 5.97 3.19 8.2v.01z"/>
    <path fill="#9FEAF9" d="M885.64 1003.07c77.49-91.54 104.54-183.61 67.33-248.07-27.39-47.43-85.27-72.47-162.21-73.47-6.7.01-12.12 5.44-12.12 12.14 0 6.57 5.24 11.95 11.81 12.13 69.19.9 119.06 22.47 141.5 61.34 30.91 53.54 6.78 135.64-64.84 220.24-1.9 2.21-2.96 5.03-2.96 7.95 0 6.7 5.44 12.13 12.14 12.13 3.62 0 7.05-1.61 9.35-4.39zM667.98 677.15c-70.07 15.01-144.64 44.36-216.26 85.71-177.21 102.31-292.81 253.18-276.75 362.57.81 6.02 5.95 10.52 12.02 10.52 6.71 0 12.14-5.44 12.14-12.14 0-.64-.05-1.28-.15-1.91-14.26-97.13 95.32-240.13 264.88-338.02 69.47-40.12 141.68-68.53 209.2-83 5.69-1.12 9.79-6.11 9.79-11.91 0-6.7-5.44-12.13-12.14-12.13-.92 0-1.84.1-2.73.31z"/>
    <path fill="#9FEAF9" d="M399.41 1216.95c40.52 113.12 106.79 182.78 181.33 182.78 54.35 0 104.64-37.06 143.86-102.29 1.19-1.92 1.83-4.14 1.83-6.4 0-6.7-5.44-12.14-12.14-12.14-4.32 0-8.32 2.3-10.49 6.04-35.25 58.62-78.54 90.52-123.06 90.52-61.92 0-121.03-62.13-158.48-166.69-1.66-4.95-6.29-8.28-11.51-8.28-6.7 0-12.13 5.43-12.13 12.13 0 1.48.27 2.94.79 4.32v.01zm392.92-30.31c20.97-67.02 32.24-144.34 32.24-224.91 0-201.04-70.37-374.34-170.59-418.84-1.49-.62-3.08-.95-4.69-.95-6.7 0-12.14 5.44-12.14 12.14 0 4.7 2.72 8.99 6.98 10.99 89.39 39.69 156.16 204.16 156.16 396.66 0 78.17-10.91 153.04-31.13 217.66-.39 1.22-.6 2.5-.6 3.79 0 6.7 5.44 12.13 12.14 12.13 5.37 0 10.1-3.53 11.63-8.67zm205.39-19.13c0-32.08-26-58.08-58.08-58.08s-58.08 26-58.08 58.08c0 32.07 26 58.08 58.08 58.08 32.07 0 58.08-26.01 58.08-58.08zm-24.27 0c0 18.66-15.14 33.81-33.81 33.81s-33.81-15.15-33.81-33.82 15.14-33.81 33.81-33.81 33.81 15.14 33.81 33.81v.01zm-752.76 73.5c32.08 0 58.08-26 58.08-58.08s-26-58.08-58.08-58.08c-32.07 0-58.08 26-58.08 58.08s26.01 58.08 58.08 58.08zm0-24.27c-18.67 0-33.81-15.14-33.81-33.81s15.14-33.81 33.81-33.81 33.81 15.14 33.81 33.81-15.14 33.81-33.81 33.81z"/>
    <path fill="#9FEAF9" d="M580.74 610.31c32.07 0 58.08-26 58.08-58.08s-26.01-58.08-58.08-58.08c-32.08 0-58.08 26-58.08 58.08 0 32.07 26 58.08 58.08 58.08zm0-24.27c-18.67 0-33.81-15.14-33.81-33.81s15.14-33.81 33.81-33.81 33.81 15.14 33.81 33.81-15.14 33.81-33.81 33.81zm8.86 357.32c-22.68 4.91-45.03-9.51-49.94-32.2-.63-2.9-.94-5.89-.94-8.86 0-19.79 13.81-36.91 33.14-41.08 22.69-4.91 45.04 9.51 49.95 32.2 4.9 22.68-9.51 45.03-32.2 49.94h-.01z"/>
    <path fill="#07B6D5" d="M1819.21 1276.64h-372.17V613.59h357.33v93.43h-247.32v187.67h227.91v92.96h-227.91v196.02h262.16v92.97zm485.01 0h-367.11V613.59h110v570.08h257.11v92.97zm467.97 0h-372.16V613.59h357.33v93.43h-247.33v187.67h227.91v92.96h-227.91v196.02h262.16v92.97zm580.19-27.78c-49.88 25.88-112.06 38.83-186.24 38.83-96.28 0-173.3-30.31-231.22-91.07-57.93-60.77-86.97-140.47-86.97-239.12 0-105.9 32.67-191.6 97.86-256.95 65.18-65.5 147.57-98.17 247.16-98.17 64.08 0 117.27 9.16 159.41 27.31v109.22c-44.67-26.52-93.91-39.78-147.89-39.78-71.81 0-130.05 22.89-174.56 68.82-44.51 45.93-66.92 107.32-66.92 184.03 0 73.07 20.83 131.31 62.5 174.56 41.67 43.4 96.28 65.03 164.15 65.03 62.5 0 116.79-14.84 162.72-44.35v101.64zm551.3-541.84h-190.5v569.62h-110.01V707.02h-190.18v-93.43h490.69v93.43zm609.55 569.62H4384.6l-105.91-177.56c-9.47-16.42-18.78-30.31-27.93-41.83-9.16-11.52-18.31-20.99-27.78-28.41-9.31-7.42-19.57-12.78-30.78-16.25-11.05-3.32-23.52-5.06-37.41-5.06h-44.35v269.11h-109.53V613.59h218.12c31.25 0 59.82 3.63 86.02 11.05 26.2 7.41 49.08 18.62 68.5 33.61 19.41 14.84 34.56 33.46 45.45 55.88 11.05 22.41 16.42 48.45 16.42 78.44 0 23.36-3.47 44.82-10.26 64.39-6.95 19.57-16.89 37.09-29.67 52.25-12.79 15.31-28.25 28.41-46.25 39.14-17.99 10.73-38.35 19.1-60.76 24.93v1.9c11.99 6.79 22.41 14.2 31.41 22.41 8.99 8.21 17.36 16.57 25.41 25.25 8.05 8.53 15.94 18.31 23.83 29.36 7.89 10.89 16.57 23.52 26.2 38.04l117.9 186.4zm-402.79-573.88V918.2h91.55c16.88 0 32.67-2.52 46.87-7.73 14.36-5.37 26.83-12.79 37.25-22.73 10.57-9.78 18.62-21.94 24.46-35.99 6-14.2 8.84-30.14 8.84-47.66 0-31.72-9.94-56.66-29.99-74.5-20.04-17.83-48.92-26.83-86.49-26.83h-92.49zm744.02 584.93c-95.49 0-172.04-30.94-229.64-92.97-57.45-61.87-86.18-142.52-86.18-241.8 0-106.69 29.36-191.76 87.91-255.21 58.56-63.45 138.1-95.33 238.49-95.33 93.12 0 168.09 30.94 225.06 92.49 56.82 61.71 85.23 142.36 85.23 241.96 0 108.11-29.04 193.66-87.28 256.63-58.4 62.82-136.21 94.23-233.59 94.23zm5.05-588.56c-60.61 0-110.01 22.57-148.2 67.87-38.04 45.45-57.14 104.96-57.14 178.98 0 73.71 18.63 133.05 55.56 178.03 36.93 44.99 85.39 67.56 145.2 67.56 63.45 0 113.64-21.47 150.26-64.24 36.62-42.93 55.08-102.91 55.08-179.93 0-79.23-17.83-140.47-53.5-183.56-35.51-43.08-84.6-64.71-147.26-64.71zm999.71 577.51h-120.27l-316.61-487.39c-8.05-12.31-14.68-25.09-19.89-38.35h-2.84c2.53 14.21 3.63 44.51 3.63 91.07v434.67h-106.22V613.59h128l306.19 475.7c12.95 19.73 21.15 33.3 24.94 40.72h1.89c-3.15-17.52-4.73-47.35-4.73-89.17V613.59h105.91v663.05z" />
</svg>