<svg xmlns="http://www.w3.org/2000/svg" viewBox="0 0 21946.41 7045.32">
  <defs/>
    <path fill="none" d="M105.88 0h21840.53v7045.32H105.88z"/>
    <path fill="#FF3E00" d="M3089.11 2112.67c-354.12-510.06-1059.12-659.5-1565.93-337.87l-893.42 571.79c-243.67 152.69-412.6 402.85-461.34 685.5-42.23 237.16-6.49 480.83 107.21 692-77.97 116.96-129.95 246.91-152.69 383.36-51.98 289.14 16.24 588.03 185.18 825.2 357.37 510.06 1059.12 659.51 1565.93 337.87l893.43-568.54c243.66-152.69 412.6-402.85 461.33-685.5 42.23-237.16 6.5-480.82-107.21-692 77.97-116.95 129.95-246.91 152.69-383.36 55.23-292.39-12.99-591.28-185.18-828.45z"/>
    <path fill="white" d="M1435.46 4981.38c-289.14 74.72-591.28-38.99-760.22-282.65-103.96-142.95-142.95-321.63-113.71-497.07 6.5-29.24 13-55.23 19.49-84.46l16.25-51.99 45.48 32.49c107.21 77.97 224.17 136.45 350.87 175.44l32.49 9.75-3.25 32.48c-3.25 45.49 9.75 94.22 35.74 133.2 51.98 74.73 142.95 110.46 230.66 87.72 19.5-6.49 38.99-12.99 55.23-22.74l890.18-568.54c45.48-29.24 74.72-71.48 84.47-123.46 9.75-51.98-3.25-107.21-32.49-149.44-51.98-74.73-142.95-107.21-230.66-84.47-19.5 6.5-38.99 12.99-55.23 22.74l-341.13 217.67c-55.23 35.74-116.96 61.73-181.93 77.97-289.15 74.73-591.29-38.98-760.23-282.64-100.71-142.95-142.94-321.64-110.46-497.07 29.24-168.94 133.2-321.64 279.4-412.6l893.43-568.54c55.23-35.74 116.95-61.73 181.93-81.22 289.14-74.73 591.28 38.98 760.22 282.64 103.96 142.95 142.95 321.63 113.71 497.07-6.5 29.24-12.99 55.23-22.74 84.47l-16.24 51.98-45.49-32.49c-107.21-77.97-224.17-136.45-350.87-175.43l-32.49-9.75 3.25-32.49c3.25-45.48-9.75-94.22-35.74-133.2-51.98-74.72-142.94-107.21-230.66-84.47-19.49 6.5-38.99 13-55.23 22.74l-890.18 568.54c-45.48 29.24-74.72 71.48-84.47 123.46-9.74 51.98 3.25 107.21 32.49 149.44 51.98 74.73 142.95 107.22 230.67 84.47 19.49-6.49 38.98-12.99 55.23-22.74l341.12-217.67c55.23-35.74 116.96-61.73 181.94-81.22 289.14-74.72 591.28 38.99 760.22 282.65 103.96 142.95 142.95 321.63 113.71 497.07-29.24 168.93-133.2 321.63-279.4 412.59l-893.42 568.55c-55.23 35.74-116.96 61.73-181.94 81.22z"/>
    <path fill="#ff3e00" d="m3834.51 3947.59 475.52-47.21c28.66 159.07 86 275.42 173.12 350.17 87.12 74.76 204.59 111.86 352.42 111.86 156.26 0 274.3-33.17 353.55-99.49 79.25-66.33 119.16-143.89 119.16-232.7 0-57.33-16.86-105.67-50.03-146.14-33.16-39.91-91.61-74.76-174.8-103.99-56.77-20.23-186.05-55.08-388.4-105.67-260.24-65.2-442.92-145.01-548.03-240.01-147.82-133.21-221.45-295.65-221.45-487.32 0-123.09 34.84-238.88 103.98-346.24 69.7-107.36 169.75-188.86 300.71-245.07 130.97-56.2 288.35-84.31 473.83-84.31 301.84 0 529.48 66.89 681.81 201.23 152.88 134.33 232.7 313.08 240.57 537.34l-489.01 16.87c-20.8-124.78-65.2-214.15-133.21-268.68-68.02-54.52-170.31-82.06-306.34-82.06-140.52 0-250.69 29.23-329.94 87.68-51.15 37.66-77 87.69-77 150.64 0 57.33 24.17 106.23 72.5 146.7 61.27 52.28 210.22 106.24 446.86 162.45 236.63 55.64 411.44 114.1 524.42 173.68 113.54 60.14 202.35 141.64 266.42 245.63 64.08 103.98 96.12 232.13 96.12 384.46 0 138.27-38.22 268.11-115.23 388.96-77 120.84-185.48 210.78-326 269.23-140.52 59.02-315.89 88.25-525.55 88.25-305.21 0-539.59-70.26-703.16-211.34-163.56-140.52-260.8-345.68-292.84-614.92zM6829.83 4730.01l-863.91-2414.69h528.35l613.23 1787.41L7696 2315.32h519.36L7356.5 4730.01zM8461.55 4730.01V2315.32h1787.41v408.06h-1298.4v536.23h1207.35v408.07H8950.56v654.26h1345.62v408.07zM10724.49 4730.01V2335.55h489.01v1986.39h1210.72v408.07zM13063.86 4730.01V2723.38h-714.96v-408.06h1915.56v408.06h-711.59v2006.63zM14580.92 4730.01V2315.32h1787.41v408.06h-1298.41v536.23h1207.35v408.07h-1207.35v654.26h1345.62v408.07z"/>
    <path fill="#8D8D93" d="M16837.11 4730.01V2315.32h489v1069.63l985.33-1069.63h655.38l-911.13 940.35 958.35 1474.34h-630.65l-664.38-1133.72-392.9 403.58v730.14zM19248.99 4730.01V2315.32H19738v2414.69zM20745.81 4730.01V2723.38h-714.97v-408.06h1915.57v408.06h-711.59v2006.63z"/>
</svg>