<svg xmlns="http://www.w3.org/2000/svg" viewBox="0 0 7083.94 2285.14">
    <path fill="none" d="M0 0h7083.94v2285.14H0z"/>
    <path fill="#07B6D5" d="M505.62 913.44c-181.87 5.78-235.92 135.69-248.31 206.07 16.14-26.09 67-83.33 141.89-83.33 87.27 0 153.71 97.41 194.25 127.81 49.25 36.94 148.22 85.72 278.15 46.17 103.6-31.53 151.64-141.51 162.15-193.69-50.11 68.13-126.12 109.05-220.15 60.81-64.75-33.22-113.17-170.04-307.98-163.84zM248.3 1222.55C66.44 1228.33 12.39 1358.24 0 1428.62c16.14-26.08 67-83.33 141.89-83.33 87.27 0 153.71 97.41 194.25 127.82 49.25 36.94 148.22 85.71 278.14 46.17 103.6-31.53 151.65-141.52 162.16-193.69-50.11 68.13-126.12 109.05-220.15 60.81-64.75-33.22-113.17-170.04-307.99-163.85z"/>
    <path fill="#07B6D5" d="M1626.41 1615.74c-29 14.5-67.46 21.75-115.14 21.75-127.87 0-191.81-61.3-191.81-184.12v-372.65h-110.08V963.61h110.08V811.12l149.41-42.63v195.12h157.54v117.11h-157.54v329.58c0 39.11 7.03 67.02 21.09 83.72 14.28 16.69 37.79 25.04 70.97 25.04 25.27 0 47.02-7.25 65.48-21.75v118.43zm634.78 7.03h-144.8v-103.05h-2.64c-45.48 79.1-112.06 118.43-200.16 118.43-64.82 0-115.58-17.58-152.27-52.73-36.7-35.16-54.93-81.74-54.93-139.75 0-124.36 71.63-196.86 214.88-217.52l195.78-27.69c0-94.04-44.61-141.06-134.03-141.06-78.44 0-149.19 27.25-212.25 81.3v-130.73c69.43-41.31 149.62-61.74 240.59-61.74 166.55 0 249.83 81.95 249.83 245.87v428.67zm-144.14-323.87-138.43 19.34c-42.84 5.71-75.14 16.04-96.9 31.2-21.75 15.38-32.51 41.96-32.51 80.2 0 27.9 10.1 50.75 29.88 68.55 19.99 17.8 46.8 26.81 80.2 26.81 45.48 0 83.27-16.04 112.93-48.12 29.89-31.86 44.83-72.07 44.83-120.63v-57.35zm401.65-473.72c-24.39 0-45.26-7.91-62.62-23.73-17.58-16.04-26.15-36.03-26.15-60.64 0-24.39 8.57-44.83 26.15-61.09 17.36-16.26 38.23-24.38 62.62-24.38 25.27 0 46.8 8.12 64.38 24.38 17.57 16.26 26.36 36.7 26.36 61.09 0 23.29-8.79 43.06-26.36 59.54-17.58 16.48-39.11 24.83-64.38 24.83zm74.04 797.59h-149.41V963.61h149.41v659.16zm344.97 0h-150.07V646.99h150.07v975.78zm1080.81-659.16-194.45 659.16h-156.44l-119.75-446.69c-4.61-17.14-7.69-36.48-9.01-58.01h-2.63c-.88 14.5-4.62 33.4-11.65 56.69l-129.86 448.01h-153.36l-193.58-659.16h154.47L3322 1438.64c3.74 14.29 6.38 32.96 7.7 56.69h4.39c1.32-18.01 4.83-37.35 10.33-58.01l133.37-473.71h140.18l118.43 477.01c3.96 14.94 6.81 33.84 8.35 56.69h4.62c.88-16.04 4.17-34.93 9.66-56.69l117.11-477.01h142.38zm185.89-138.43c-24.39 0-45.26-7.91-62.62-23.73-17.58-16.04-26.15-36.03-26.15-60.64 0-24.39 8.57-44.83 26.15-61.09 17.36-16.26 38.23-24.38 62.62-24.38 25.27 0 46.8 8.12 64.38 24.38 17.57 16.26 26.36 36.7 26.36 61.09 0 23.29-8.79 43.06-26.36 59.54-17.58 16.48-39.11 24.83-64.38 24.83zm74.04 797.59h-149.41V963.61h149.41v659.16zm782 0h-149.19v-371.33c0-123.26-43.73-184.79-130.74-184.79-45.48 0-83.05 16.92-112.72 51.2-29.66 34.06-44.38 77.12-44.38 128.98v375.94h-150.07V963.61h150.07v109.42h2.64c49.21-83.28 120.62-124.8 213.57-124.8 71.85 0 126.56 23.28 164.13 69.86 37.79 46.37 56.69 113.82 56.69 201.71v402.97zm781.55 0h-149.41v-112.06h-2.42c-48.11 85.03-122.16 127.44-222.14 127.44-81.07 0-146.11-29.44-194.67-88.55-48.78-58.88-73.17-139.3-73.17-241.03 0-108.98 27.03-196.21 80.86-261.91 53.83-65.7 125.46-98.43 215.33-98.43 88.77 0 153.36 35.59 193.79 106.78h2.42V646.99H5842v975.78zm-147.43-301.24v-86.35c0-46.8-15.16-86.35-45.7-119.09-30.55-32.52-69.22-48.78-116.46-48.78-55.81 0-99.75 20.66-131.61 62.41-32.08 41.52-48.12 99.31-48.12 173.14 0 67.01 15.38 119.75 46.14 158.64 30.54 38.88 71.85 58.22 123.93 58.22 50.97 0 92.5-18.67 124.14-56.25 31.86-37.57 47.68-84.81 47.68-141.94z"/>
    <path fill="#07B6D5" d="M6372.69 720.65h431.33c113.44 0 206.26 92.81 206.26 206.25v431.33c0 113.44-92.82 206.26-206.26 206.26h-431.33c-113.44 0-206.25-92.82-206.25-206.26V926.9c0-113.44 92.81-206.25 206.25-206.25zm431.33-73.66H6372.7c-153.95 0-279.92 125.96-279.92 279.92v431.32c0 153.95 125.97 279.92 279.92 279.92h431.32c153.96 0 279.92-125.97 279.92-279.92V926.91c0-153.96-125.96-279.92-279.92-279.92z" />
    <path fill="#07B6D5" class="fil2" d="M6676.97 1183.7c0 132.33-62.74 198.55-188.11 198.55-120.09 0-180.13-63.64-180.13-191.03V902.89h78.23v272.28c0 92.48 35.91 138.73 107.85 138.73 69.25 0 103.93-44.67 103.93-133.79V902.89h78.23v280.81zM6868 1374.39h-80.48v-471.5H6868v471.5z"/>
</svg>